<?xml version="1.0" encoding="utf-8"?>
<!-- Generator: Adobe Illustrator 19.2.0, SVG Export Plug-In . SVG Version: 6.00 Build 0)  -->
<!DOCTYPE svg PUBLIC "-//W3C//DTD SVG 1.1//EN" "http://www.w3.org/Graphics/SVG/1.1/DTD/svg11.dtd">
<svg version="1.1" id="Layer_1" xmlns="http://www.w3.org/2000/svg" xmlns:xlink="http://www.w3.org/1999/xlink" x="0px" y="0px"
	 width="18px" height="18px" viewBox="0 0 18 18" enable-background="new 0 0 18 18" xml:space="preserve">
<g>
	<g>
		<path fill="#3D9900" d="M12,12H7.7l-1.9-1.9C5.7,10,5.6,10,5.4,10c-0.2,0-0.3,0.2-0.4,0.3l-2,6c-0.1,0.2,0,0.5,0.2,0.6
			C3.3,17,3.4,17,3.5,17c0.1,0,0.3,0,0.4-0.1l2.4-2.4l1.3,3.2C7.6,17.9,7.8,18,7.9,18c0,0,0,0,0.1,0c0.2,0,0.3-0.1,0.4-0.2l4-5
			c0.1-0.2,0.1-0.4,0.1-0.5C12.4,12.1,12.2,12,12,12z"/>
		<path fill="#3D9900" d="M15.4,1.2C15.2,1,15,1,14.8,1l-4.6,1.8L8.4,0.2C8.3,0.1,8.1,0,7.9,0C7.7,0,7.6,0.2,7.5,0.3L6.4,3.6
			L4.6,2.2C4.4,2.1,4.2,2,4,2C3.8,2,3.7,2,3.6,2.1C3.2,2.3,3,2.6,3,3v5c0,0.3,0.2,0.7,0.5,0.9C3.6,8.9,3.8,9,4,9
			c0.2,0,0.3,0,0.4-0.1L8.2,7H12c0.2,0,0.4-0.1,0.4-0.3c0,0,0,0,0-0.1l0.1,0.1C12.7,6.9,12.8,7,12.9,7C13,7,13,7,13,7
			c0.2,0,0.3-0.1,0.4-0.3l2.1-5C15.5,1.5,15.5,1.3,15.4,1.2z"/>
	</g>
	<path fill="#FFFFFF" d="M17.9,9.4c0.4-2-0.2-3.3-0.7-3.9C16.6,4.8,15.5,4,13.3,4c-1,0-1.9,0.2-2.8,0.6L9.2,4.3C8.3,4.1,7.4,4,6.5,4
		C2.5,4,1.3,5.8,1,7.3C0.8,8.3,1,9,1.3,9.5L0.7,9.2c0,0-0.5,2.5-0.7,3.1c0,0.1,0,0.3,0,0.4c0,0.4,0.2,0.7,0.8,0.8
		C1.5,13.7,2.9,14,4.1,14c1.6,0,2.8-0.4,3.7-1c0.7,0.8,1.7,1.3,3.1,1.4l0.8,1.5h5.7l-1.7-2.8C16.8,12.3,17.6,11,17.9,9.4z"/>
	<path fill="#FF7400" d="M7.1,9c0.1-0.3,0.1-0.5,0.2-0.7C6.3,7.9,4.9,8,5,7.4c0.1-0.5,0.9-0.5,1.4-0.5c0.5,0,1,0.1,1.5,0.2
		c0.4-0.7,0.8-1.3,1.4-1.7C8.5,5.1,7.3,5,6.5,5C4.7,5,2.4,5.4,2,7.5c-0.6,3,3.6,2.1,3.4,3.1C5.3,11,4.7,11.1,4,11.1
		c-0.9,0-1.8-0.2-2.6-0.5l-0.4,2C2.1,12.9,3,13,4.1,13c1.1,0,2.3-0.2,3.2-0.9C7,11.3,6.9,10.3,7.1,9z"/>
	<path fill="#FF7400" d="M12.4,15l-0.8-1.5c-2.7,0-3.9-1.5-3.4-4.2C8.7,6.5,10.6,5,13.3,5s4.1,1.5,3.6,4.2c-0.3,1.8-1.2,3-2.5,3.6
		l1.3,2.1H12.4z M12,11.5c1.2,0,1.5-1.4,1.7-2.3C13.9,8.5,14.1,7,12.9,7c-1.1,0-1.5,1.5-1.7,2.3C11.1,10.1,11,11.5,12,11.5z"/>
</g>
<g>
</g>
<g>
</g>
<g>
</g>
<g>
</g>
<g>
</g>
<g>
</g>
</svg>
